<?xml version="1.0" encoding="UTF-8"?>
<svg id="Layer_1" data-name="Layer 1" xmlns="http://www.w3.org/2000/svg" version="1.1" viewBox="0 0 90 36">
  <defs>
    <style>
      .cls-1 {
        fill: #1dbf73;
      }

      .cls-1, .cls-2, .cls-3, .cls-4 {
        stroke-width: 0px;
      }

      .cls-2 {
        fill: #f9cc02;
      }

      .cls-3 {
        fill: #404145;
      }

      .cls-4 {
        fill: #fff;
      }
    </style>
  </defs>
  <g>
    <path class="cls-3" d="M81.55,13.03h-3.1c-2,0-3.1,1.44-3.1,3.95v8.96h-6v-12.9h-2.5c-2,0-3.1,1.44-3.1,3.95v8.96h-6V8.22h6v2.7c1-2.12,2.3-2.7,4.3-2.7h7.3v2.7c1-2.12,2.3-2.7,4.3-2.7h2l-.1,4.81ZM56.35,18.43h-12.4c.3,2.02,1.6,3.08,3.7,3.08,1.6,0,2.7-.67,3.1-1.73l5.3,1.44c-1.3,3.08-4.5,4.91-8.4,4.91-6.5,0-9.5-4.91-9.5-9.15s2.6-9.05,9.1-9.05c6.9,0,9.2,5.01,9.2,8.76,0,.87,0,1.35-.1,1.73ZM50.65,15.05c-.1-1.54-1.3-2.89-3.3-2.89s-3,.77-3.4,2.89h6.7ZM27.75,25.94h5.2l6.6-17.62h-6l-3.2,10.3-3.2-10.4h-6l6.6,17.72ZM3.35,25.94h5.9v-12.9h5.7v12.9h5.9V8.22h-11.6v-1.06c0-1.16.9-1.93,2.2-1.93h3.5V.42h-4.4C6.25.42,3.35,3.02,3.35,6.77v1.44H-.05v4.81h3.4v12.9Z"/>
    <path class="cls-1" d="M85.25,26.42c2,0,3.7-1.64,3.7-3.56s-1.7-3.56-3.7-3.56-3.7,1.64-3.7,3.56,1.7,3.56,3.7,3.56Z"/>
  </g>
  <g>
    <polygon class="cls-2" points="48.91 29.21 49.75 31.79 52.47 31.79 50.27 33.38 51.11 35.96 48.91 34.36 46.71 35.96 47.55 33.38 45.35 31.79 48.07 31.79 48.91 29.21"/>
    <polygon class="cls-2" points="58.17 29.21 59.01 31.79 61.73 31.79 59.53 33.38 60.37 35.96 58.17 34.36 55.97 35.96 56.81 33.38 54.61 31.79 57.33 31.79 58.17 29.21"/>
    <polygon class="cls-2" points="67.43 29.21 68.27 31.79 70.99 31.79 68.79 33.38 69.63 35.96 67.43 34.36 65.22 35.96 66.07 33.38 63.86 31.79 66.59 31.79 67.43 29.21"/>
    <polygon class="cls-2" points="76.68 29.21 77.52 31.79 80.24 31.79 78.04 33.38 78.88 35.96 76.68 34.36 74.48 35.96 75.32 33.38 73.12 31.79 75.84 31.79 76.68 29.21"/>
    <g>
      <polygon class="cls-4" points="89.5 31.79 87.5 31.79 87.5 33.23 89.5 31.79"/>
      <polygon class="cls-2" points="87.3 33.38 87.5 33.23 87.5 31.79 86.78 31.79 85.94 29.21 85.1 31.79 82.38 31.79 84.58 33.38 83.74 35.96 85.94 34.36 87.5 35.49 87.5 34 87.3 33.38"/>
      <polygon class="cls-4" points="87.5 34 87.5 35.49 88.14 35.96 87.5 34"/>
    </g>
  </g>
</svg>