<?xml version="1.0" encoding="UTF-8"?>
<svg xmlns="http://www.w3.org/2000/svg" xmlns:xlink="http://www.w3.org/1999/xlink" width="124px"
    height="36px" viewBox="0 0 123 36" version="1.1">
    <g id="surface1">
        <path
            style=" stroke:none;fill-rule:nonzero;fill:rgb(5.882353%,27.058824%,100%);fill-opacity:1;"
            d="M 63.765625 18.933594 L 57.078125 18.933594 C 56.925781 18.933594 56.804688 19.054688 56.804688 19.210938 L 56.804688 31.527344 C 56.804688 31.679688 56.925781 31.804688 57.078125 31.804688 L 63.875 31.804688 C 67.054688 31.804688 69.351562 30.90625 70.597656 29.019531 C 71.210938 28.046875 71.515625 26.867188 71.515625 25.429688 L 71.515625 25.378906 C 71.515625 21 68.703125 18.933594 63.765625 18.933594 Z M 67.074219 25.398438 C 67.074219 27.316406 66.164062 28.136719 63.609375 28.136719 L 61.359375 28.136719 C 61.203125 28.136719 61.082031 28.015625 61.082031 27.863281 L 61.082031 22.832031 C 61.082031 22.679688 61.203125 22.558594 61.359375 22.558594 L 63.535156 22.558594 C 66.148438 22.558594 67.078125 23.332031 67.078125 25.359375 L 67.078125 25.398438 Z M 67.074219 25.398438 " />
        <path
            style=" stroke:none;fill-rule:nonzero;fill:rgb(5.882353%,27.058824%,100%);fill-opacity:1;"
            d="M 87.242188 26.359375 C 87.242188 24.136719 86.265625 22.402344 84.195312 21.453125 C 83.171875 20.960938 81.863281 20.726562 80.261719 20.726562 C 76.953125 20.726562 74.839844 21.820312 73.773438 23.601562 C 73.261719 24.519531 72.988281 25.46875 72.988281 26.597656 C 72.988281 28.132812 73.40625 29.441406 74.476562 30.429688 C 75.550781 31.410156 77.285156 31.957031 79.9375 31.957031 C 83.808594 31.957031 86.078125 30.960938 87.050781 28.515625 C 87.101562 28.386719 87.007812 28.242188 86.867188 28.242188 L 82.578125 28.242188 C 82.519531 28.242188 82.460938 28.269531 82.425781 28.3125 C 82.070312 28.722656 81.496094 28.96875 80.210938 28.96875 C 78.578125 28.96875 77.707031 28.546875 77.355469 27.675781 C 77.304688 27.542969 77.398438 27.398438 77.539062 27.398438 L 87.046875 27.398438 C 87.15625 27.398438 87.246094 27.304688 87.246094 27.195312 L 87.246094 26.359375 Z M 77.636719 25.265625 C 77.484375 25.265625 77.394531 25.101562 77.460938 24.96875 C 77.875 24.171875 78.746094 23.75 80.210938 23.75 C 81.679688 23.75 82.472656 24.09375 82.816406 24.988281 C 82.863281 25.117188 82.769531 25.261719 82.628906 25.261719 L 77.640625 25.261719 Z M 77.636719 25.265625 " />
        <path
            style=" stroke:none;fill-rule:nonzero;fill:rgb(5.882353%,27.058824%,100%);fill-opacity:1;"
            d="M 95.46875 20.738281 C 91.371094 20.738281 88.933594 22.011719 88.554688 24.742188 C 88.542969 24.816406 88.605469 24.882812 88.679688 24.882812 L 92.902344 24.882812 C 92.960938 24.882812 93.015625 24.84375 93.023438 24.785156 C 93.140625 24.042969 93.820312 23.625 95.667969 23.625 C 97.246094 23.625 97.6875 24.046875 97.6875 24.535156 C 97.6875 24.886719 97.445312 25.066406 96.539062 25.199219 C 96.101562 25.273438 95.484375 25.320312 94.628906 25.394531 C 92.847656 25.523438 91.773438 25.671875 90.992188 25.886719 C 90.609375 25.980469 90.246094 26.128906 89.902344 26.292969 C 88.757812 26.824219 88.226562 27.753906 88.226562 28.992188 L 88.226562 29.003906 C 88.226562 31 89.644531 31.960938 92.46875 31.960938 C 95.066406 31.960938 96.765625 31.066406 97.625 29.757812 C 97.6875 29.664062 97.832031 29.695312 97.851562 29.804688 L 98.210938 31.703125 C 98.222656 31.761719 98.273438 31.804688 98.332031 31.804688 L 101.777344 31.804688 C 101.847656 31.804688 101.902344 31.75 101.902344 31.679688 L 101.902344 25.359375 C 101.902344 21.929688 99.828125 20.742188 95.464844 20.742188 Z M 97.703125 26.851562 C 97.703125 27.691406 97.015625 28.457031 95.941406 28.898438 C 95.417969 29.132812 94.816406 29.242188 94.179688 29.242188 C 93.199219 29.242188 92.8125 28.96875 92.8125 28.515625 L 92.8125 28.5 C 92.8125 28.207031 92.976562 27.984375 93.265625 27.820312 C 93.617188 27.621094 94.210938 27.507812 95.5625 27.386719 C 96.707031 27.238281 97.410156 27.035156 97.703125 26.746094 L 97.703125 26.855469 Z M 97.703125 26.851562 " />
        <path
            style=" stroke:none;fill-rule:nonzero;fill:rgb(5.882353%,27.058824%,100%);fill-opacity:1;"
            d="M 106.445312 20.722656 L 103.929688 20.722656 C 103.820312 20.722656 103.734375 20.8125 103.734375 20.921875 L 103.734375 31.601562 C 103.734375 31.710938 103.820312 31.800781 103.929688 31.800781 L 108.105469 31.800781 C 108.214844 31.800781 108.300781 31.710938 108.300781 31.601562 L 108.300781 20.953125 C 108.300781 20.847656 108.214844 20.753906 108.105469 20.753906 L 106.449219 20.726562 Z M 106.445312 20.722656 " />
        <path
            style=" stroke:none;fill-rule:nonzero;fill:rgb(5.882353%,27.058824%,100%);fill-opacity:1;"
            d="M 120.632812 25.355469 C 119.761719 25.113281 118.574219 24.972656 117.066406 24.902344 C 115.417969 24.824219 114.519531 24.722656 114.140625 24.519531 C 113.941406 24.429688 113.847656 24.28125 113.847656 24.136719 C 113.847656 23.714844 114.253906 23.390625 115.777344 23.390625 C 117.140625 23.390625 118.101562 23.601562 118.449219 24.289062 C 118.488281 24.363281 118.566406 24.410156 118.652344 24.410156 L 122.59375 24.410156 C 122.757812 24.410156 122.867188 24.25 122.808594 24.097656 C 121.902344 21.746094 119.753906 20.730469 115.886719 20.730469 C 111.773438 20.730469 109.734375 22.1875 109.734375 24.503906 C 109.734375 25.949219 110.429688 26.78125 112.140625 27.21875 C 112.996094 27.441406 114.089844 27.582031 115.507812 27.660156 C 117.378906 27.730469 118.265625 27.820312 118.578125 28.023438 C 118.738281 28.113281 118.835938 28.246094 118.835938 28.386719 C 118.835938 28.839844 118.355469 29.171875 116.847656 29.171875 C 115.144531 29.171875 114.386719 28.925781 114.050781 28.253906 C 114.015625 28.179688 113.9375 28.132812 113.851562 28.132812 L 109.640625 28.132812 C 109.492188 28.132812 109.382812 28.273438 109.421875 28.417969 C 110.070312 30.988281 112.574219 31.957031 116.4375 31.957031 C 119.527344 31.957031 121.398438 31.269531 122.308594 30.121094 C 122.761719 29.535156 123.003906 28.878906 123.003906 28.113281 C 123.003906 26.671875 122.363281 25.8125 120.640625 25.359375 Z M 120.632812 25.355469 " />
        <path
            style=" stroke:none;fill-rule:nonzero;fill:rgb(5.882353%,27.058824%,100%);fill-opacity:1;"
            d="M 67.316406 3.929688 L 67.316406 10.519531 C 67.316406 10.652344 67.148438 10.710938 67.0625 10.609375 L 61.21875 3.589844 C 61.117188 3.46875 60.96875 3.398438 60.8125 3.398438 L 57.332031 3.398438 C 57.039062 3.398438 56.800781 3.636719 56.800781 3.929688 L 56.800781 15.941406 C 56.800781 16.238281 57.039062 16.472656 57.332031 16.472656 L 60.492188 16.472656 C 60.785156 16.472656 61.019531 16.238281 61.019531 15.941406 L 61.019531 9.105469 C 61.019531 8.96875 61.191406 8.910156 61.273438 9.011719 L 67.265625 16.28125 C 67.367188 16.402344 67.515625 16.472656 67.675781 16.472656 L 70.988281 16.472656 C 71.28125 16.472656 71.519531 16.234375 71.519531 15.9375 L 71.519531 3.929688 C 71.519531 3.636719 71.28125 3.398438 70.988281 3.398438 L 67.84375 3.398438 C 67.550781 3.398438 67.3125 3.636719 67.3125 3.929688 Z M 67.316406 3.929688 " />
        <path
            style=" stroke:none;fill-rule:nonzero;fill:rgb(5.882353%,27.058824%,100%);fill-opacity:1;"
            d="M 87.230469 11.226562 C 87.230469 8.996094 86.253906 7.265625 84.175781 6.316406 C 83.15625 5.820312 81.851562 5.589844 80.25 5.589844 C 76.941406 5.589844 74.828125 6.683594 73.753906 8.472656 C 73.25 9.382812 72.976562 10.328125 72.976562 11.460938 C 72.976562 12.996094 73.390625 14.304688 74.464844 15.292969 C 75.539062 16.277344 77.261719 16.824219 79.917969 16.824219 C 83.796875 16.824219 86.066406 15.824219 87.039062 13.378906 C 87.089844 13.246094 86.992188 13.105469 86.851562 13.105469 L 82.566406 13.105469 C 82.503906 13.105469 82.449219 13.132812 82.410156 13.175781 C 82.054688 13.585938 81.484375 13.828125 80.199219 13.828125 C 78.5625 13.828125 77.691406 13.414062 77.34375 12.542969 C 77.289062 12.414062 77.382812 12.265625 77.527344 12.265625 L 87.035156 12.265625 C 87.144531 12.265625 87.234375 12.175781 87.234375 12.066406 L 87.234375 11.226562 Z M 77.625 10.128906 C 77.472656 10.128906 77.382812 9.964844 77.449219 9.832031 C 77.863281 9.039062 78.730469 8.617188 80.195312 8.617188 C 81.660156 8.617188 82.457031 8.964844 82.800781 9.851562 C 82.847656 9.984375 82.753906 10.128906 82.613281 10.128906 Z M 77.625 10.128906 " />
        <path
            style=" stroke:none;fill-rule:nonzero;fill:rgb(5.882353%,27.058824%,100%);fill-opacity:1;"
            d="M 95.453125 5.609375 C 91.351562 5.609375 88.910156 6.882812 88.542969 9.621094 C 88.53125 9.6875 88.585938 9.746094 88.652344 9.746094 L 92.902344 9.746094 C 92.957031 9.746094 93 9.707031 93.011719 9.648438 C 93.125 8.910156 93.804688 8.488281 95.652344 8.488281 C 97.234375 8.488281 97.667969 8.910156 97.667969 9.40625 C 97.667969 9.75 97.433594 9.929688 96.523438 10.0625 C 96.089844 10.132812 95.46875 10.191406 94.617188 10.261719 C 92.828125 10.394531 91.761719 10.535156 90.980469 10.757812 C 90.597656 10.847656 90.234375 10.992188 89.882812 11.152344 C 88.746094 11.6875 88.214844 12.617188 88.214844 13.855469 L 88.214844 13.875 C 88.214844 15.859375 89.628906 16.828125 92.449219 16.828125 C 95.074219 16.828125 96.777344 15.921875 97.632812 14.59375 C 97.6875 14.507812 97.8125 14.535156 97.832031 14.632812 L 98.164062 16.390625 C 98.171875 16.441406 98.21875 16.480469 98.273438 16.480469 L 101.78125 16.480469 C 101.84375 16.480469 101.890625 16.429688 101.890625 16.371094 L 101.890625 10.226562 C 101.890625 6.796875 99.816406 5.617188 95.453125 5.617188 Z M 97.6875 11.71875 C 97.6875 12.558594 96.996094 13.324219 95.929688 13.761719 C 95.398438 14.003906 94.800781 14.105469 94.160156 14.105469 C 93.183594 14.105469 92.796875 13.832031 92.796875 13.378906 L 92.796875 13.359375 C 92.796875 13.070312 92.960938 12.851562 93.25 12.683594 C 93.59375 12.484375 94.195312 12.378906 95.546875 12.25 C 96.691406 12.097656 97.394531 11.90625 97.6875 11.613281 L 97.6875 11.722656 Z M 97.6875 11.71875 " />
        <path
            style=" stroke:none;fill-rule:nonzero;fill:rgb(5.882353%,27.058824%,100%);fill-opacity:1;"
            d="M 112.144531 5.582031 C 109.695312 5.582031 108.441406 6.65625 108.015625 8.839844 C 107.96875 9.027344 107.871094 9.175781 107.753906 9.328125 C 107.480469 9.671875 107.058594 9.882812 106.617188 9.882812 C 106.320312 9.882812 106.039062 9.792969 105.792969 9.613281 L 104.109375 8.429688 C 103.957031 8.320312 103.742188 8.429688 103.742188 8.621094 L 103.742188 16.242188 C 103.742188 16.371094 103.847656 16.472656 103.976562 16.472656 L 108.136719 16.472656 C 108.265625 16.472656 108.367188 16.371094 108.367188 16.242188 L 108.367188 13.097656 C 108.367188 11.546875 108.644531 10.675781 109.523438 10.289062 C 109.96875 10.113281 110.59375 10.011719 111.441406 10.011719 L 113.070312 10.011719 C 113.199219 10.011719 113.304688 9.910156 113.304688 9.78125 L 113.304688 5.820312 C 113.304688 5.691406 113.199219 5.589844 113.070312 5.589844 L 112.140625 5.589844 Z M 112.144531 5.582031 " />
        <path
            style=" stroke:none;fill-rule:nonzero;fill:rgb(95.686275%,76.862745%,0%);fill-opacity:1;"
            d="M 107.570312 5.207031 L 107.375 5.753906 L 107.09375 6.558594 C 107.046875 6.691406 107.03125 6.835938 107.066406 6.976562 L 107.359375 8.265625 C 107.46875 8.773438 107.066406 9.1875 106.621094 9.1875 C 106.476562 9.1875 106.332031 9.140625 106.195312 9.050781 L 103.742188 7.320312 L 103.382812 7.0625 C 102.917969 6.734375 102.964844 6.023438 103.480469 5.773438 L 106.535156 4.289062 C 106.644531 4.234375 106.757812 4.210938 106.863281 4.210938 C 107.347656 4.210938 107.753906 4.699219 107.570312 5.21875 Z M 107.570312 5.207031 " />
        <path
            style=" stroke:none;fill-rule:nonzero;fill:rgb(3.529412%,12.156863%,32.54902%);fill-opacity:1;"
            d="M 17.070312 22.914062 L 13.675781 34.621094 C 13.390625 35.613281 12.15625 35.949219 11.402344 35.238281 L 0.488281 24.925781 L 0.308594 24.753906 C 0.179688 24.605469 0.0820312 24.421875 0.0351562 24.21875 L 2.273438 23.183594 L 9.414062 19.882812 L 9.429688 19.882812 C 9.632812 19.761719 9.851562 19.667969 10.082031 19.59375 C 10.589844 19.402344 11.136719 19.320312 11.703125 19.335938 C 11.851562 19.34375 11.992188 19.355469 12.132812 19.375 C 12.136719 19.375 12.148438 19.375 12.15625 19.382812 C 12.632812 19.4375 13.089844 19.585938 13.5 19.785156 C 13.75 19.90625 13.980469 20.054688 14.195312 20.214844 C 14.269531 20.265625 15.417969 21.347656 17.054688 22.890625 Z M 17.070312 22.914062 " />
        <path
            style=" stroke:none;fill-rule:nonzero;fill:rgb(100%,85.882353%,37.254902%);fill-opacity:1;"
            d="M 49.5625 11.921875 L 47.824219 12.757812 L 47.355469 12.988281 L 39.882812 16.59375 C 39.882812 16.59375 39.882812 16.59375 39.878906 16.59375 C 39.347656 16.804688 38.757812 16.90625 38.15625 16.882812 C 38.027344 16.878906 37.886719 16.867188 37.761719 16.847656 L 37.730469 16.847656 C 37.289062 16.796875 36.867188 16.664062 36.476562 16.492188 C 36.101562 16.320312 35.757812 16.105469 35.449219 15.84375 C 35.4375 15.835938 35.433594 15.824219 35.417969 15.816406 L 32.539062 13.089844 L 36.015625 1.394531 C 36.3125 0.402344 37.546875 0.0742188 38.292969 0.792969 L 49.15625 11.246094 L 49.25 11.332031 C 49.25 11.332031 49.257812 11.34375 49.265625 11.351562 C 49.40625 11.507812 49.511719 11.703125 49.558594 11.917969 Z M 49.5625 11.921875 " />
        <path
            style=" stroke:none;fill-rule:nonzero;fill:rgb(95.686275%,76.862745%,0%);fill-opacity:1;"
            d="M 49.59375 12.199219 C 49.59375 12.300781 49.578125 12.402344 49.554688 12.5 L 49.515625 12.628906 C 49.515625 12.628906 49.515625 12.628906 49.515625 12.632812 L 44.742188 28.726562 L 44.558594 29.332031 C 44.558594 29.332031 44.558594 29.351562 44.550781 29.359375 C 44.191406 30.324219 43.5 31.125 42.617188 31.628906 C 42.609375 31.636719 42.605469 31.636719 42.597656 31.644531 L 41.984375 31.929688 L 34.785156 35.355469 L 34.171875 35.644531 C 33.632812 35.851562 33.046875 35.957031 32.441406 35.9375 C 32.300781 35.929688 32.15625 35.917969 32.015625 35.898438 L 34.542969 27.507812 L 37.476562 17.746094 L 37.746094 16.847656 L 37.753906 16.847656 C 37.882812 16.867188 38.023438 16.878906 38.152344 16.882812 C 38.757812 16.902344 39.339844 16.800781 39.875 16.59375 L 40.492188 16.304688 L 47.351562 12.988281 L 47.820312 12.757812 L 49.558594 11.921875 C 49.578125 12.011719 49.589844 12.105469 49.589844 12.199219 Z M 49.59375 12.199219 " />
        <path
            style=" stroke:none;fill-rule:nonzero;fill:rgb(5.882353%,27.058824%,100%);fill-opacity:1;"
            d="M 37.746094 16.847656 L 37.476562 17.746094 L 34.542969 27.507812 L 32.015625 35.898438 C 31.574219 35.847656 31.152344 35.722656 30.761719 35.550781 C 30.386719 35.375 30.042969 35.15625 29.738281 34.894531 C 29.722656 34.890625 29.71875 34.875 29.707031 34.871094 L 29.40625 34.582031 C 29.40625 34.582031 21.460938 27.050781 17.054688 22.894531 C 15.414062 21.351562 14.269531 20.269531 14.195312 20.21875 C 13.976562 20.058594 13.746094 19.910156 13.5 19.789062 C 13.082031 19.589844 12.628906 19.445312 12.152344 19.386719 L 12.976562 16.488281 L 15.238281 8.550781 L 17.648438 0.101562 C 18.417969 0.199219 19.128906 0.496094 19.714844 0.9375 L 20.453125 1.644531 L 32.53125 13.089844 L 35.414062 15.816406 C 35.414062 15.816406 35.433594 15.835938 35.445312 15.84375 C 35.75 16.105469 36.097656 16.320312 36.472656 16.492188 C 36.859375 16.664062 37.28125 16.792969 37.722656 16.847656 Z M 37.746094 16.847656 " />
        <path
            style=" stroke:none;fill-rule:nonzero;fill:rgb(0%,16.862745%,63.921569%);fill-opacity:1;"
            d="M 17.648438 0.101562 L 15.242188 8.554688 L 12.980469 16.492188 L 12.15625 19.386719 C 12.15625 19.386719 12.136719 19.382812 12.132812 19.382812 C 11.992188 19.363281 11.851562 19.351562 11.703125 19.34375 C 11.136719 19.324219 10.585938 19.40625 10.082031 19.601562 C 9.851562 19.671875 9.636719 19.765625 9.429688 19.890625 L 9.414062 19.890625 L 2.273438 23.191406 L 0.0351562 24.21875 C 0.0351562 24.21875 0.0351562 24.203125 0.03125 24.199219 C 0.0117188 24.109375 0.00390625 24.023438 0.00390625 23.929688 C 0.00390625 23.835938 0.0117188 23.738281 0.0390625 23.644531 L 0.0859375 23.484375 L 5.445312 5.484375 C 5.519531 5.230469 5.699219 5.019531 5.9375 4.910156 L 14.742188 0.726562 L 15.601562 0.316406 C 16.105469 0.125 16.652344 0.0429688 17.222656 0.0585938 C 17.367188 0.0664062 17.507812 0.078125 17.648438 0.0976562 Z M 17.648438 0.101562 " />
    </g>
</svg>