<svg width="500" height="361" viewBox="0 0 500 361" fill="none" xmlns="http://www.w3.org/2000/svg">
<path d="M172.095 229.797L137.858 347.471C134.963 357.476 122.533 360.843 114.95 353.701L4.9068 250.028L3.08167 248.298C1.76002 246.787 0.784517 244.931 0.3125 242.917L22.8749 232.503L94.8733 199.309H95.0621C97.1075 198.082 99.3102 197.138 101.639 196.414C106.737 194.495 112.244 193.646 117.971 193.834C119.45 193.897 120.866 194.023 122.282 194.212C122.345 194.212 122.471 194.212 122.533 194.275C127.348 194.841 131.942 196.32 136.096 198.334C138.614 199.561 140.911 201.039 143.113 202.644C143.837 203.179 155.417 214.034 171.938 229.545L172.095 229.797Z" fill="#091F53"/>
<path d="M499.676 119.264L482.149 127.696L477.429 129.993L402.095 166.239C402.095 166.239 402.095 166.239 402.063 166.239C396.682 168.347 390.766 169.385 384.693 169.165C383.403 169.102 381.987 168.976 380.696 168.787H380.382C375.945 168.284 371.697 166.962 367.763 165.232C363.956 163.501 360.494 161.33 357.41 158.687C357.284 158.625 357.221 158.499 357.096 158.436L328.051 131L363.106 13.4204C366.095 3.44642 378.557 0.142745 386.077 7.37936L495.585 112.468L496.53 113.349C496.53 113.349 496.624 113.474 496.687 113.537C498.103 115.11 499.173 117.093 499.645 119.232L499.676 119.264Z" fill="#FFDB5F"/>
<path d="M500 122.063C500 123.102 499.874 124.109 499.623 125.084L499.245 126.374C499.245 126.374 499.245 126.374 499.245 126.405L451.099 288.222L449.243 294.326C449.243 294.326 449.243 294.515 449.18 294.578C445.529 304.3 438.575 312.323 429.67 317.42C429.607 317.483 429.544 317.483 429.481 317.546L423.282 320.441L350.717 354.862L344.518 357.757C339.105 359.865 333.189 360.903 327.085 360.714C325.668 360.651 324.189 360.525 322.773 360.337L348.262 275.952L377.842 177.817L380.58 168.787H380.643C381.933 168.976 383.349 169.101 384.639 169.164C390.744 169.353 396.628 168.315 402.009 166.238C402.009 166.238 402.009 166.238 402.041 166.238L408.24 163.344L477.406 129.992L482.126 127.695L499.654 119.263C499.874 120.176 499.969 121.12 499.969 122.063H500Z" fill="#F4C400"/>
<path d="M380.569 168.788L377.831 177.819L348.251 275.953L322.762 360.338C318.325 359.835 314.077 358.545 310.144 356.814C306.336 355.084 302.875 352.881 299.791 350.239C299.665 350.176 299.602 350.05 299.476 349.987L296.455 347.092C296.455 347.092 216.338 271.36 171.905 229.576C155.385 214.064 143.836 203.21 143.081 202.675C140.878 201.07 138.581 199.591 136.064 198.364C131.878 196.382 127.316 194.903 122.501 194.305L130.808 165.202L153.623 85.3787L177.916 0.427246C185.688 1.40261 192.832 4.42311 198.748 8.85947L206.205 15.9388L327.986 131.001L357.031 158.437C357.031 158.437 357.219 158.626 357.345 158.689C360.429 161.332 363.922 163.503 367.698 165.233C371.6 166.964 375.848 168.254 380.317 168.788H380.569Z" fill="#0F45FF"/>
<path d="M177.919 0.427991L153.657 85.411L130.843 165.234L122.536 194.338C122.536 194.338 122.347 194.275 122.284 194.275C120.868 194.086 119.452 193.96 117.973 193.897C112.246 193.708 106.707 194.526 101.641 196.477C99.3124 197.201 97.1412 198.145 95.0643 199.372H94.8755L22.8771 232.566L0.314678 242.917C0.314678 242.917 0.314678 242.76 0.28321 242.697C0.0944035 241.816 0 240.935 0 239.991C0 239.047 0.0944035 238.072 0.346146 237.128L0.818163 235.523L54.8799 54.5452C55.6351 51.9967 57.4288 49.8886 59.8518 48.7874L148.591 6.7207L157.276 2.59897C162.342 0.679699 167.881 -0.138353 173.608 0.0189649C175.087 0.0818919 176.503 0.207746 177.919 0.396527V0.427991Z" fill="#002BA3"/>
</svg>
