<?xml version="1.0" encoding="UTF-8"?>
<svg xmlns="http://www.w3.org/2000/svg" xmlns:xlink="http://www.w3.org/1999/xlink" width="163px"
    height="36px" viewBox="0 0 163 36" version="1.1">
    <g id="surface1">
        <path style=" stroke:none;fill-rule:nonzero;fill:rgb(255%,255%,255%);fill-opacity:1;"
            d="M 2.914062 8.125 L 7.304688 14.402344 L 12.601562 11.261719 L 10.878906 8.125 Z M 8.730469 16.4375 L 9.332031 17.296875 L 10.117188 16.828125 Z M 22.132812 22.625 L 16.808594 25.675781 L 18.550781 28.777344 L 26.476562 28.777344 Z M 22.132812 22.625 " />
        <path
            style=" stroke:none;fill-rule:nonzero;fill:rgb(85.882353%,20%,25.098039%);fill-opacity:1;"
            d="M 13.613281 19.890625 L 1.207031 32.621094 L 27.390625 17.609375 L 18.832031 15.199219 L 27.855469 4.289062 L 5.4375 17.582031 Z M 13.613281 19.890625 " />
        <path style=" stroke:none;fill-rule:nonzero;fill:rgb(255%,255%,255%);fill-opacity:1;"
            d="M 43.019531 7.648438 L 34.449219 7.648438 L 34.449219 27.867188 L 43.019531 27.867188 C 49.355469 27.867188 52.816406 24.222656 52.816406 17.757812 C 52.816406 11.292969 49.355469 7.648438 43.019531 7.648438 Z M 42.5 23.886719 L 39.714844 23.886719 L 39.714844 11.628906 L 42.5 11.628906 C 45.929688 11.628906 47.429688 13.714844 47.429688 17.757812 C 47.429688 21.800781 45.929688 23.886719 42.5 23.886719 Z M 42.5 23.886719 " />
        <path style=" stroke:none;fill-rule:nonzero;fill:rgb(255%,255%,255%);fill-opacity:1;"
            d="M 69.460938 19.996094 C 69.460938 15.152344 66.796875 12.242188 61.808594 12.242188 C 56.695312 12.242188 53.816406 15.152344 53.816406 20.210938 C 53.816406 25.265625 56.726562 28.175781 62.082031 28.175781 C 65.632812 28.175781 68.234375 26.828125 69.121094 24.160156 L 64.898438 22.8125 C 64.5625 23.886719 63.613281 24.5 62.082031 24.5 C 60.335938 24.5 59.207031 23.703125 58.867188 21.710938 L 69.304688 21.710938 C 69.398438 21.3125 69.460938 20.515625 69.460938 19.996094 Z M 61.777344 15.890625 C 63.398438 15.890625 64.347656 16.929688 64.59375 18.890625 L 58.835938 18.890625 C 59.144531 16.839844 60.125 15.890625 61.777344 15.890625 Z M 61.777344 15.890625 " />
        <path style=" stroke:none;fill-rule:nonzero;fill:rgb(255%,255%,255%);fill-opacity:1;"
            d="M 86.039062 27.867188 L 80.589844 20.148438 L 85.917969 12.550781 L 80.164062 12.550781 L 77.285156 17.667969 L 74.46875 12.550781 L 68.5625 12.550781 L 73.855469 20.117188 L 68.347656 27.867188 L 74.101562 27.867188 L 77.164062 22.539062 L 80.164062 27.867188 Z M 86.039062 27.867188 " />
        <path style=" stroke:none;fill-rule:nonzero;fill:rgb(255%,255%,255%);fill-opacity:1;"
            d="M 100.714844 19.996094 C 100.714844 15.152344 98.050781 12.242188 93.0625 12.242188 C 87.949219 12.242188 85.074219 15.152344 85.074219 20.210938 C 85.074219 25.265625 87.980469 28.175781 93.339844 28.175781 C 96.890625 28.175781 99.492188 26.828125 100.378906 24.160156 L 96.15625 22.8125 C 95.816406 23.886719 94.867188 24.5 93.339844 24.5 C 91.59375 24.5 90.460938 23.703125 90.125 21.710938 L 100.5625 21.710938 C 100.65625 21.3125 100.714844 20.515625 100.714844 19.996094 Z M 93.03125 15.890625 C 94.65625 15.890625 95.605469 16.929688 95.847656 18.890625 L 90.09375 18.890625 C 90.398438 16.839844 91.378906 15.890625 93.03125 15.890625 Z M 93.03125 15.890625 " />
        <path style=" stroke:none;fill-rule:nonzero;fill:rgb(255%,255%,255%);fill-opacity:1;"
            d="M 109.410156 12.242188 C 104.328125 12.242188 101.359375 15.183594 101.359375 20.210938 C 101.359375 25.234375 104.265625 28.175781 109.625 28.175781 C 113.910156 28.175781 116.390625 26.152344 116.816406 23.488281 L 112.132812 21.988281 C 111.890625 23.578125 111.0625 24.46875 109.59375 24.46875 C 107.757812 24.46875 106.5625 23.304688 106.5625 20.269531 C 106.5625 17.269531 107.632812 15.949219 109.59375 15.949219 C 110.972656 15.949219 111.734375 16.808594 111.949219 18.585938 L 116.785156 16.992188 C 116.296875 14.511719 114.367188 12.242188 109.410156 12.242188 Z M 109.410156 12.242188 " />
        <path style=" stroke:none;fill-rule:nonzero;fill:rgb(255%,255%,255%);fill-opacity:1;"
            d="M 128.0625 12.550781 L 128.0625 20.667969 C 128.0625 23.121094 126.867188 24.191406 125.246094 24.191406 C 123.898438 24.191406 123.132812 23.550781 123.132812 21.464844 L 123.132812 12.550781 L 117.929688 12.550781 L 117.929688 22.78125 C 117.929688 26.644531 120.042969 28.175781 123.164062 28.175781 C 125.644531 28.175781 127.480469 27.164062 128.460938 25.019531 L 128.613281 27.867188 L 133.265625 27.867188 L 133.265625 12.550781 Z M 128.0625 12.550781 " />
        <path style=" stroke:none;fill-rule:nonzero;fill:rgb(255%,255%,255%);fill-opacity:1;"
            d="M 144.902344 12.242188 C 142.511719 12.242188 140.984375 13.589844 140.25 15.859375 L 140.035156 12.550781 L 135.441406 12.550781 L 135.441406 27.867188 L 140.644531 27.867188 L 140.644531 20.148438 C 140.644531 17.726562 142.238281 16.53125 144.074219 16.53125 C 144.871094 16.53125 145.605469 16.746094 146.003906 16.992188 L 146.554688 12.582031 C 146.21875 12.398438 145.667969 12.242188 144.902344 12.242188 Z M 144.902344 12.242188 " />
        <path style=" stroke:none;fill-rule:nonzero;fill:rgb(255%,255%,255%);fill-opacity:1;"
            d="M 161.792969 19.996094 C 161.792969 15.152344 159.128906 12.242188 154.140625 12.242188 C 149.027344 12.242188 146.152344 15.152344 146.152344 20.210938 C 146.152344 25.265625 149.058594 28.175781 154.414062 28.175781 C 157.964844 28.175781 160.566406 26.828125 161.457031 24.160156 L 157.230469 22.8125 C 156.894531 23.886719 155.945312 24.5 154.414062 24.5 C 152.671875 24.5 151.539062 23.703125 151.203125 21.710938 L 161.640625 21.710938 C 161.730469 21.3125 161.792969 20.515625 161.792969 19.996094 Z M 154.109375 15.890625 C 155.730469 15.890625 156.679688 16.929688 156.925781 18.890625 L 151.171875 18.890625 C 151.476562 16.839844 152.457031 15.890625 154.109375 15.890625 Z M 154.109375 15.890625 " />
    </g>
</svg>