<?xml version="1.0" encoding="UTF-8"?>
<svg xmlns="http://www.w3.org/2000/svg" xmlns:xlink="http://www.w3.org/1999/xlink" width="144px" height="36px" viewBox="0 0 144 36" version="1.1">
<g id="surface1">
<path style=" stroke:none;fill-rule:nonzero;fill:rgb(49.803922%,25.882353%,25.490196%);fill-opacity:1;" d="M 18.753906 16.371094 C 18.753906 9.046875 17.113281 6.363281 12.824219 4.714844 L 0.0703125 0 L 0.0703125 6.820312 C 0.0703125 8.269531 1.210938 9.871094 2.652344 10.402344 L 18.785156 16.320312 L 18.785156 16.371094 Z M 18.753906 16.371094 "/>
<path style=" stroke:none;fill-rule:nonzero;fill:rgb(49.803922%,25.882353%,25.490196%);fill-opacity:1;" d="M 26.144531 4.589844 C 21.761719 6.191406 19.824219 8.886719 19.824219 16.308594 L 19.824219 16.320312 L 36.0625 10.398438 C 37.5 9.871094 38.742188 8.269531 38.742188 6.820312 L 38.742188 0 Z M 26.144531 4.589844 "/>
<path style=" stroke:none;fill-rule:nonzero;fill:rgb(49.803922%,25.882353%,25.490196%);fill-opacity:1;" d="M 18.753906 27.042969 C 18.753906 19.300781 16.792969 16.914062 12.527344 15.320312 L 3.597656 12.046875 L 3.597656 18.871094 C 3.597656 20.316406 4.675781 21.921875 6.117188 22.449219 L 10.460938 24.074219 L 10.460938 30.371094 C 10.460938 31.820312 11.679688 33.421875 13.121094 33.949219 L 18.777344 36.003906 L 18.777344 27.042969 Z M 18.753906 27.042969 "/>
<path style=" stroke:none;fill-rule:nonzero;fill:rgb(49.803922%,25.882353%,25.490196%);fill-opacity:1;" d="M 27.769531 14.671875 C 22.335938 16.820312 19.824219 19.015625 19.824219 27.066406 L 19.824219 36 L 25.480469 33.949219 C 26.921875 33.417969 28.140625 31.816406 28.140625 30.367188 L 28.140625 23.9375 L 32.589844 22.3125 C 34.027344 21.785156 35.207031 20.183594 35.207031 18.734375 L 35.207031 11.914062 C 35.207031 11.914062 29.023438 14.175781 27.769531 14.671875 "/>
<path style=" stroke:none;fill-rule:nonzero;fill:rgb(255%,255%,255%);fill-opacity:1;" d="M 53.246094 16.554688 L 57.378906 16.554688 L 57.378906 19.78125 L 53.246094 19.78125 L 53.246094 25.332031 L 49.03125 25.332031 L 49.03125 11.171875 L 58.679688 11.171875 C 58.707031 11.453125 58.726562 11.679688 58.742188 11.847656 C 58.753906 12.011719 58.761719 12.21875 58.761719 12.457031 C 58.761719 12.695312 58.726562 12.929688 58.660156 13.15625 C 58.585938 13.390625 58.460938 13.601562 58.292969 13.777344 C 58.097656 13.980469 57.859375 14.136719 57.601562 14.242188 C 57.246094 14.371094 56.867188 14.433594 56.488281 14.421875 L 53.257812 14.421875 Z M 53.246094 16.554688 "/>
<path style=" stroke:none;fill-rule:nonzero;fill:rgb(255%,255%,255%);fill-opacity:1;" d="M 68.808594 25.332031 L 65.726562 25.332031 C 65.363281 25.332031 65.121094 25.257812 65.003906 25.101562 C 64.859375 24.84375 64.796875 24.550781 64.824219 24.257812 C 64.59375 24.617188 64.277344 24.910156 63.902344 25.113281 C 63.335938 25.414062 62.699219 25.558594 62.058594 25.523438 C 61.175781 25.523438 60.492188 25.3125 60 24.890625 C 59.394531 24.3125 59.007812 23.535156 58.917969 22.695312 C 58.898438 22.5 58.882812 22.296875 58.878906 22.082031 C 58.878906 21.871094 58.863281 21.667969 58.855469 21.472656 C 58.851562 21.273438 58.855469 21.105469 58.855469 20.964844 L 58.855469 15.222656 C 59.160156 15.160156 59.46875 15.117188 59.78125 15.097656 C 60.050781 15.097656 60.28125 15.074219 60.472656 15.074219 C 60.796875 15.074219 61.117188 15.105469 61.4375 15.171875 C 61.730469 15.230469 62.011719 15.339844 62.265625 15.5 C 62.515625 15.660156 62.71875 15.890625 62.851562 16.164062 C 63.011719 16.5 63.089844 16.875 63.082031 17.25 L 63.082031 21.261719 C 63.070312 21.515625 63.117188 21.765625 63.21875 22 C 63.308594 22.183594 63.507812 22.273438 63.816406 22.273438 C 64.042969 22.300781 64.273438 22.226562 64.445312 22.074219 C 64.550781 21.953125 64.609375 21.800781 64.613281 21.640625 L 64.613281 15.222656 C 64.917969 15.160156 65.226562 15.117188 65.535156 15.097656 C 65.808594 15.082031 66.035156 15.074219 66.214844 15.074219 C 66.542969 15.074219 66.871094 15.105469 67.191406 15.171875 C 67.488281 15.226562 67.769531 15.34375 68.019531 15.511719 C 68.265625 15.679688 68.464844 15.914062 68.597656 16.183594 C 68.761719 16.53125 68.839844 16.910156 68.828125 17.292969 Z M 68.808594 25.332031 "/>
<path style=" stroke:none;fill-rule:nonzero;fill:rgb(255%,255%,255%);fill-opacity:1;" d="M 70.488281 15.246094 C 70.726562 15.1875 70.972656 15.144531 71.21875 15.117188 C 71.519531 15.085938 71.820312 15.074219 72.121094 15.074219 C 72.652344 15.054688 73.175781 15.152344 73.664062 15.359375 C 74.019531 15.507812 74.304688 15.785156 74.472656 16.132812 C 74.703125 15.773438 75.019531 15.480469 75.394531 15.273438 C 75.960938 14.972656 76.597656 14.832031 77.238281 14.863281 C 78.121094 14.863281 78.804688 15.074219 79.292969 15.5 C 79.792969 15.933594 80.136719 16.519531 80.28125 17.164062 C 80.324219 17.339844 80.355469 17.515625 80.375 17.691406 C 80.394531 17.890625 80.410156 18.09375 80.414062 18.304688 C 80.421875 18.515625 80.429688 18.722656 80.4375 18.917969 C 80.4375 19.117188 80.4375 19.28125 80.4375 19.425781 L 80.4375 25.25 C 79.941406 25.445312 79.414062 25.539062 78.882812 25.523438 C 78.375 25.546875 77.863281 25.46875 77.382812 25.292969 C 76.769531 25.050781 76.347656 24.476562 76.296875 23.816406 C 76.261719 23.46875 76.242188 23.117188 76.246094 22.769531 L 76.246094 19.128906 C 76.253906 18.875 76.21875 18.625 76.136719 18.390625 C 76.070312 18.207031 75.878906 18.113281 75.574219 18.113281 C 75.335938 18.089844 75.097656 18.164062 74.910156 18.316406 C 74.789062 18.425781 74.71875 18.582031 74.714844 18.75 L 74.714844 25.332031 L 70.488281 25.332031 Z M 70.488281 15.246094 "/>
<path style=" stroke:none;fill-rule:nonzero;fill:rgb(255%,255%,255%);fill-opacity:1;" d="M 82.125 15.246094 C 82.367188 15.1875 82.613281 15.144531 82.859375 15.117188 C 83.160156 15.085938 83.460938 15.074219 83.761719 15.074219 C 84.289062 15.054688 84.816406 15.152344 85.300781 15.359375 C 85.65625 15.507812 85.945312 15.78125 86.109375 16.132812 C 86.34375 15.773438 86.667969 15.476562 87.042969 15.273438 C 87.605469 14.976562 88.242188 14.832031 88.878906 14.863281 C 89.757812 14.863281 90.445312 15.074219 90.933594 15.5 C 91.429688 15.933594 91.777344 16.519531 91.917969 17.164062 C 91.964844 17.339844 91.996094 17.515625 92.011719 17.691406 C 92.035156 17.890625 92.046875 18.09375 92.054688 18.304688 C 92.058594 18.515625 92.066406 18.722656 92.074219 18.917969 C 92.074219 19.117188 92.085938 19.28125 92.085938 19.425781 L 92.085938 25.25 C 91.59375 25.445312 91.066406 25.539062 90.535156 25.523438 C 90.023438 25.546875 89.515625 25.46875 89.035156 25.292969 C 88.40625 25.058594 87.972656 24.476562 87.925781 23.804688 C 87.886719 23.457031 87.871094 23.109375 87.871094 22.757812 L 87.871094 19.128906 C 87.882812 18.875 87.84375 18.625 87.765625 18.390625 C 87.695312 18.207031 87.507812 18.113281 87.199219 18.113281 C 86.960938 18.09375 86.726562 18.164062 86.539062 18.316406 C 86.417969 18.425781 86.34375 18.582031 86.339844 18.75 L 86.339844 25.332031 L 82.125 25.332031 Z M 82.125 15.246094 "/>
<path style=" stroke:none;fill-rule:nonzero;fill:rgb(255%,255%,255%);fill-opacity:1;" d="M 99.597656 19.023438 C 99.597656 18.433594 99.515625 18.03125 99.363281 17.820312 C 99.167969 17.59375 98.875 17.476562 98.578125 17.503906 C 97.921875 17.503906 97.59375 18.011719 97.59375 19.023438 Z M 99.785156 22.695312 C 100.265625 22.710938 100.746094 22.625 101.191406 22.441406 C 101.589844 22.261719 101.972656 22.035156 102.324219 21.765625 C 102.523438 22.078125 102.703125 22.402344 102.867188 22.738281 C 103.03125 23.035156 103.125 23.367188 103.140625 23.707031 C 103.140625 23.945312 103.074219 24.179688 102.953125 24.382812 C 102.78125 24.636719 102.550781 24.847656 102.28125 24.996094 C 101.894531 25.210938 101.476562 25.367188 101.042969 25.460938 C 100.394531 25.601562 99.734375 25.664062 99.070312 25.652344 C 98.453125 25.644531 97.832031 25.574219 97.226562 25.441406 C 96.566406 25.296875 95.945312 25.015625 95.402344 24.617188 C 94.808594 24.164062 94.335938 23.574219 94.015625 22.894531 C 93.648438 22.15625 93.460938 21.191406 93.460938 19.992188 C 93.441406 19.203125 93.597656 18.417969 93.910156 17.691406 C 94.1875 17.082031 94.585938 16.535156 95.085938 16.089844 C 95.570312 15.667969 96.132812 15.351562 96.746094 15.160156 C 97.351562 14.964844 97.984375 14.867188 98.621094 14.863281 C 99.363281 14.84375 100.105469 14.972656 100.800781 15.246094 C 101.359375 15.464844 101.855469 15.8125 102.257812 16.257812 C 102.632812 16.683594 102.90625 17.1875 103.066406 17.734375 C 103.234375 18.308594 103.320312 18.90625 103.316406 19.507812 L 103.316406 19.792969 C 103.316406 19.910156 103.316406 20.027344 103.316406 20.164062 C 103.316406 20.300781 103.304688 20.410156 103.296875 20.523438 C 103.292969 20.609375 103.28125 20.691406 103.265625 20.777344 L 97.644531 20.777344 C 97.699219 21.277344 97.902344 21.75 98.230469 22.136719 C 98.554688 22.507812 99.070312 22.695312 99.78125 22.695312 "/>
<path style=" stroke:none;fill-rule:nonzero;fill:rgb(255%,255%,255%);fill-opacity:1;" d="M 104.566406 10.519531 C 104.867188 10.449219 105.175781 10.40625 105.488281 10.390625 C 105.761719 10.375 105.988281 10.371094 106.179688 10.371094 C 106.507812 10.367188 106.832031 10.402344 107.152344 10.464844 C 107.449219 10.519531 107.730469 10.632812 107.980469 10.800781 C 108.230469 10.972656 108.429688 11.207031 108.558594 11.476562 C 108.722656 11.824219 108.800781 12.203125 108.792969 12.585938 L 108.792969 25.25 C 108.296875 25.421875 107.78125 25.515625 107.257812 25.523438 C 106.75 25.546875 106.238281 25.46875 105.761719 25.292969 C 105.132812 25.058594 104.699219 24.476562 104.648438 23.804688 C 104.613281 23.457031 104.59375 23.109375 104.597656 22.757812 Z M 104.566406 10.519531 "/>
<path style=" stroke:none;fill-rule:nonzero;fill:rgb(255%,255%,255%);fill-opacity:1;" d="M 111.378906 25.332031 L 111.378906 11.214844 L 119.203125 11.214844 C 119.21875 11.496094 119.125 11.769531 118.945312 11.984375 C 118.746094 12.183594 118.476562 12.285156 118.199219 12.269531 L 112.617188 12.269531 L 112.617188 17.25 L 117.566406 17.25 L 117.566406 18.328125 L 112.617188 18.328125 L 112.617188 25.332031 Z M 111.378906 25.332031 "/>
<path style=" stroke:none;fill-rule:nonzero;fill:rgb(255%,255%,255%);fill-opacity:1;" d="M 121.070312 10.371094 C 121.113281 10.359375 121.160156 10.351562 121.203125 10.347656 L 121.28125 10.347656 C 121.378906 10.347656 121.476562 10.359375 121.574219 10.382812 C 121.691406 10.402344 121.804688 10.453125 121.898438 10.527344 C 122.011719 10.613281 122.105469 10.726562 122.171875 10.855469 C 122.257812 11.03125 122.296875 11.226562 122.289062 11.421875 L 122.289062 23.390625 C 122.289062 23.980469 122.371094 24.375 122.539062 24.554688 C 122.757812 24.765625 123.054688 24.882812 123.355469 24.878906 L 123.355469 25.324219 C 123.214844 25.363281 123.066406 25.390625 122.917969 25.40625 C 122.777344 25.421875 122.636719 25.429688 122.496094 25.429688 C 122.21875 25.445312 121.941406 25.378906 121.699219 25.242188 C 121.515625 25.125 121.363281 24.957031 121.273438 24.753906 C 121.175781 24.535156 121.117188 24.300781 121.101562 24.058594 C 121.082031 23.796875 121.070312 23.53125 121.070312 23.246094 Z M 121.070312 10.371094 "/>
<path style=" stroke:none;fill-rule:nonzero;fill:rgb(255%,255%,255%);fill-opacity:1;" d="M 133.796875 25.332031 L 132.585938 25.332031 L 132.585938 24.195312 C 132.1875 24.589844 131.714844 24.902344 131.199219 25.121094 C 130.523438 25.414062 129.789062 25.554688 129.054688 25.53125 C 128.613281 25.542969 128.175781 25.480469 127.753906 25.355469 C 127.417969 25.25 127.105469 25.085938 126.828125 24.867188 C 126.363281 24.496094 126.042969 23.96875 125.925781 23.378906 C 125.855469 23.074219 125.808594 22.765625 125.792969 22.453125 C 125.769531 22.136719 125.761719 21.816406 125.761719 21.492188 L 125.761719 15.476562 L 125.84375 15.476562 C 126.121094 15.472656 126.390625 15.554688 126.621094 15.710938 C 126.851562 15.863281 126.957031 16.175781 126.957031 16.617188 L 126.957031 21.492188 C 126.957031 21.773438 126.972656 22.054688 127.007812 22.335938 C 127.035156 22.585938 127.085938 22.835938 127.164062 23.078125 C 127.429688 23.976562 128.222656 24.425781 129.535156 24.425781 C 129.894531 24.425781 130.253906 24.375 130.601562 24.28125 C 130.945312 24.191406 131.273438 24.066406 131.589844 23.910156 C 131.855469 23.78125 132.097656 23.613281 132.3125 23.414062 C 132.476562 23.285156 132.578125 23.09375 132.597656 22.886719 L 132.597656 15.476562 L 132.679688 15.476562 C 132.957031 15.472656 133.226562 15.550781 133.457031 15.710938 C 133.6875 15.863281 133.792969 16.175781 133.792969 16.636719 L 133.792969 25.332031 Z M 133.796875 25.332031 "/>
<path style=" stroke:none;fill-rule:nonzero;fill:rgb(255%,255%,255%);fill-opacity:1;" d="M 139.859375 19.550781 L 142.3125 16.066406 C 142.4375 15.886719 142.59375 15.734375 142.773438 15.613281 C 142.953125 15.515625 143.15625 15.46875 143.359375 15.476562 C 143.464844 15.476562 143.566406 15.492188 143.664062 15.519531 C 143.753906 15.542969 143.84375 15.570312 143.929688 15.605469 L 140.507812 20.480469 L 143.824219 25.398438 C 143.742188 25.433594 143.65625 25.460938 143.570312 25.484375 C 143.476562 25.511719 143.375 25.527344 143.277344 25.527344 C 143.046875 25.535156 142.816406 25.476562 142.617188 25.355469 C 142.425781 25.226562 142.257812 25.0625 142.125 24.871094 L 139.796875 21.429688 L 137.53125 24.828125 C 137.410156 25.03125 137.253906 25.210938 137.070312 25.355469 C 136.863281 25.484375 136.621094 25.542969 136.378906 25.527344 C 136.175781 25.53125 135.976562 25.496094 135.792969 25.421875 L 139.148438 20.460938 L 135.894531 15.585938 C 136.082031 15.511719 136.28125 15.476562 136.484375 15.480469 C 136.722656 15.457031 136.964844 15.507812 137.175781 15.628906 C 137.347656 15.769531 137.492188 15.941406 137.605469 16.132812 Z M 139.859375 19.550781 "/>
</g>
</svg>
