<?xml version="1.0" encoding="UTF-8"?>
<svg xmlns="http://www.w3.org/2000/svg" xmlns:xlink="http://www.w3.org/1999/xlink" width="103px" height="36px" viewBox="0 0 102 36" version="1.1">
<g id="surface1">
<path style=" stroke:none;fill-rule:nonzero;fill:rgb(36.862745%,37.254902%,37.254902%);fill-opacity:1;" d="M 55.023438 34.894531 L 52.023438 34.894531 L 52.023438 14.136719 L 55.023438 14.136719 Z M 55.683594 6.148438 C 55.683594 6.769531 55.464844 7.28125 55.023438 7.679688 C 54.582031 8.078125 54.097656 8.277344 53.566406 8.277344 C 53.039062 8.277344 52.550781 8.078125 52.109375 7.679688 C 51.667969 7.28125 51.449219 6.769531 51.449219 6.148438 C 51.449219 5.527344 51.667969 5.019531 52.109375 4.621094 C 52.550781 4.21875 53.039062 4.019531 53.566406 4.019531 C 54.097656 4.019531 54.582031 4.21875 55.023438 4.621094 C 55.464844 5.019531 55.683594 5.527344 55.683594 6.148438 Z M 47.785156 16.664062 L 42.933594 16.664062 L 42.933594 34.894531 L 39.933594 34.894531 L 39.933594 16.664062 L 35.609375 16.664062 L 35.609375 14.136719 L 39.933594 14.136719 L 39.933594 8.457031 C 39.933594 6.089844 40.507812 4.226562 41.652344 2.867188 C 42.800781 1.507812 44.566406 0.828125 46.949219 0.828125 C 47.332031 0.828125 47.742188 0.847656 48.183594 0.894531 C 48.625 0.9375 49.035156 1.019531 49.417969 1.136719 L 48.890625 3.800781 C 48.566406 3.710938 48.242188 3.636719 47.917969 3.578125 C 47.59375 3.519531 47.226562 3.488281 46.816406 3.488281 C 46.023438 3.488281 45.367188 3.621094 44.851562 3.886719 C 44.335938 4.152344 43.941406 4.53125 43.660156 5.019531 C 43.382812 5.507812 43.191406 6.078125 43.085938 6.726562 C 42.984375 7.378906 42.933594 8.074219 42.933594 8.8125 L 42.933594 14.136719 L 47.785156 14.136719 Z M 61.332031 14.136719 C 61.390625 14.695312 61.4375 15.316406 61.464844 16 C 61.496094 16.679688 61.507812 17.238281 61.507812 17.683594 L 61.597656 17.683594 C 62.183594 16.472656 63.140625 15.488281 64.464844 14.734375 C 65.789062 13.980469 67.1875 13.601562 68.65625 13.601562 C 71.273438 13.601562 73.238281 14.386719 74.546875 15.953125 C 75.855469 17.519531 76.511719 19.589844 76.511719 22.164062 L 76.511719 34.894531 L 73.511719 34.894531 L 73.511719 23.40625 C 73.511719 22.3125 73.421875 21.320312 73.246094 20.433594 C 73.070312 19.546875 72.765625 18.785156 72.339844 18.148438 C 71.914062 17.515625 71.339844 17.019531 70.621094 16.664062 C 69.898438 16.308594 68.996094 16.132812 67.90625 16.132812 C 67.113281 16.132812 66.339844 16.292969 65.589844 16.621094 C 64.839844 16.945312 64.171875 17.441406 63.582031 18.105469 C 62.996094 18.769531 62.523438 19.613281 62.171875 20.632812 C 61.816406 21.652344 61.640625 22.859375 61.640625 24.25 L 61.640625 34.894531 L 58.640625 34.894531 L 58.640625 18.703125 C 58.640625 18.144531 58.625 17.417969 58.597656 16.53125 C 58.566406 15.644531 58.523438 14.84375 58.464844 14.136719 Z M 100.378906 24.515625 C 100.378906 26.082031 100.109375 27.53125 99.566406 28.863281 C 99.019531 30.195312 98.261719 31.347656 97.292969 32.324219 C 96.320312 33.300781 95.160156 34.0625 93.808594 34.609375 C 92.453125 35.15625 90.96875 35.429688 89.351562 35.429688 C 87.761719 35.429688 86.292969 35.15625 84.9375 34.609375 C 83.585938 34.0625 82.425781 33.300781 81.453125 32.324219 C 80.484375 31.347656 79.726562 30.195312 79.179688 28.863281 C 78.636719 27.53125 78.363281 26.082031 78.363281 24.515625 C 78.363281 22.949219 78.636719 21.5 79.179688 20.167969 C 79.726562 18.835938 80.484375 17.683594 81.453125 16.707031 C 82.425781 15.734375 83.585938 14.972656 84.9375 14.425781 C 86.292969 13.878906 87.761719 13.605469 89.351562 13.605469 C 90.96875 13.605469 92.453125 13.878906 93.808594 14.425781 C 95.160156 14.972656 96.320312 15.734375 97.292969 16.707031 C 98.261719 17.683594 99.019531 18.839844 99.566406 20.167969 C 100.109375 21.5 100.378906 22.949219 100.378906 24.515625 Z M 97.203125 24.515625 C 97.203125 23.363281 97.019531 22.277344 96.652344 21.253906 C 96.285156 20.234375 95.761719 19.347656 95.085938 18.59375 C 94.410156 17.839844 93.585938 17.242188 92.617188 16.796875 C 91.644531 16.351562 90.554688 16.132812 89.351562 16.132812 C 88.144531 16.132812 87.0625 16.351562 86.109375 16.796875 C 85.152344 17.242188 84.335938 17.839844 83.660156 18.59375 C 82.984375 19.347656 82.460938 20.234375 82.09375 21.253906 C 81.726562 22.277344 81.542969 23.363281 81.542969 24.515625 C 81.542969 25.667969 81.726562 26.757812 82.09375 27.777344 C 82.460938 28.796875 82.984375 29.683594 83.660156 30.4375 C 84.335938 31.191406 85.152344 31.78125 86.109375 32.210938 C 87.0625 32.640625 88.144531 32.855469 89.351562 32.855469 C 90.554688 32.855469 91.644531 32.640625 92.617188 32.210938 C 93.585938 31.78125 94.410156 31.191406 95.085938 30.4375 C 95.761719 29.683594 96.285156 28.796875 96.652344 27.777344 C 97.019531 26.757812 97.203125 25.667969 97.203125 24.515625 Z M 97.203125 24.515625 "/>
<path style=" stroke:none;fill-rule:nonzero;fill:rgb(63.137255%,62.745098%,62.745098%);fill-opacity:1;" d="M 17.863281 14.867188 C 18.828125 15.546875 24.890625 19.8125 28.066406 22.035156 C 28.980469 20.296875 29.066406 18.105469 28.410156 15.863281 C 27.734375 14.488281 26.917969 13.335938 26.121094 12.402344 L 18.804688 14.695312 C 18.355469 14.835938 18.039062 14.890625 17.863281 14.867188 Z M 17.863281 14.867188 "/>
<path style=" stroke:none;fill-rule:nonzero;fill:rgb(36.862745%,37.254902%,37.254902%);fill-opacity:1;" d="M 28.40625 15.84375 C 28.40625 15.851562 28.40625 15.855469 28.410156 15.863281 C 29.066406 18.105469 28.980469 20.296875 28.070312 22.035156 C 27.839844 22.46875 27.5625 22.875 27.230469 23.25 C 24.15625 26.679688 17.714844 25.886719 12.839844 21.472656 C 7.964844 17.0625 6.503906 10.703125 9.578125 7.269531 C 11.285156 5.367188 14.027344 4.761719 16.960938 5.355469 C 11.910156 3.363281 6.832031 3.84375 3.941406 7.070312 C -0.238281 11.738281 1.746094 20.386719 8.375 26.386719 C 15.003906 32.390625 23.769531 33.46875 27.949219 28.800781 C 30.792969 25.628906 30.785156 20.617188 28.40625 15.84375 Z M 28.40625 15.84375 "/>
<path style=" stroke:none;fill-rule:nonzero;fill:rgb(96.470588%,77.647059%,0.784314%);fill-opacity:1;" d="M 18.433594 13.953125 L 18.617188 13.820312 L 23.710938 10.089844 L 26.839844 7.796875 L 26.859375 7.804688 L 26.152344 3.507812 C 25.984375 2.496094 25.402344 2.375 24.847656 3.238281 L 18.113281 13.789062 C 17.820312 14.246094 17.683594 14.5625 17.691406 14.730469 C 17.699219 14.578125 17.941406 14.316406 18.433594 13.953125 Z M 18.433594 13.953125 "/>
<path style=" stroke:none;fill-rule:nonzero;fill:rgb(81.960784%,65.882353%,1.960784%);fill-opacity:1;" d="M 30.753906 9.636719 L 26.859375 7.804688 L 26.839844 7.796875 L 23.710938 10.089844 L 18.617188 13.820312 L 18.433594 13.953125 C 17.941406 14.316406 17.699219 14.582031 17.691406 14.730469 C 17.691406 14.746094 17.691406 14.761719 17.695312 14.777344 C 17.710938 14.820312 17.757812 14.851562 17.839844 14.863281 C 17.847656 14.867188 17.851562 14.867188 17.863281 14.871094 C 18.039062 14.890625 18.355469 14.835938 18.804688 14.695312 L 26.121094 12.402344 L 30.664062 10.980469 C 31.640625 10.671875 31.683594 10.070312 30.753906 9.636719 Z M 30.753906 9.636719 "/>
</g>
</svg>
