<svg width="184" height="36" version="1.1" id="svg-935028104_2030"
    xmlns="http://www.w3.org/2000/svg" x="0" y="0"
    fill="#ffffff"
    viewBox="0 0 311.8 93.5" style="enable-background:new 0 0 311.8 93.5" space="preserve">
    <path class="st0"
        d="M207.1 56.3c.6 1.5 1.3 2.9 2.1 4.3 3.3 5.8 7.8 10.4 13.5 13.8 5.7 3.4 12 5.1 18.9 5.1 7.6 0 14.5-2.1 20.5-6.4 6-4.2 10.5-9.8 13.4-16.8l-7.4-1.9c-2.4 5.4-5.9 9.7-10.5 12.9-4.6 3.2-9.9 4.8-15.9 4.8-5.7 0-10.8-1.4-15.3-4.1-4.5-2.8-8.1-6.5-10.6-11.1l-1.2-2.4M31.7 49.3c7.4 0 13.6-4.6 16.1-11.1L41 36.4c-1.6 3.6-5 6.2-9.3 6.2-5.9 0-10.5-4.9-10.5-10.9 0-5.8 4.6-10.9 10.5-10.9 4.2 0 7.6 2.6 9.3 6.2l6.8-1.8c-2.6-6.6-8.7-11.1-16.1-11.1-9.6 0-17.5 7.7-17.5 17.5 0 9.6 7.6 17.7 17.5 17.7"></path>
    <path class="st1"
        d="M280.1 42.5c-5.9 0-10.6-4.9-10.6-10.8s4.6-10.8 10.6-10.8c5.9 0 10.6 4.9 10.6 10.8.1 5.9-4.6 10.8-10.6 10.8m0 6.8c9.6 0 17.5-8 17.5-17.6 0-9.6-7.8-17.5-17.5-17.5s-17.5 7.9-17.5 17.5c.1 9.6 7.8 17.6 17.5 17.6"></path>
    <path class="st0"
        d="M68.9 42.5c-5.9 0-10.6-4.9-10.6-10.8s4.6-10.8 10.6-10.8c5.9 0 10.6 4.9 10.6 10.8s-4.6 10.8-10.6 10.8m0 6.8c9.6 0 17.5-8 17.5-17.6 0-9.6-7.8-17.5-17.5-17.5s-17.5 7.9-17.5 17.5 7.8 17.6 17.5 17.6m22.2-.5h7.4V30.6c0-5.1 2.4-9.6 8-9.6 4.4 0 6.9 3.3 6.9 8.7v19.2h7.4V29.5c.3-4.6 2.8-8.6 7.9-8.6 4.4 0 6.9 3.3 6.9 8.7v19.2h7.4V27.9c0-8.9-6.3-13.8-12.8-13.8-4.5 0-8.9 2.3-11.5 6.4-2.2-4.2-6.4-6.4-10.7-6.4-4.4 0-7.5 2.2-9.4 5v-4.4h-7.4v34.1zm57.9 0h7.4V31.3c0-5.8 3.7-10.2 9.2-10.2 4.4 0 8.3 3.2 8.3 8.9v18.9h7.4v-21c0-8.7-6.8-13.8-14.3-13.8-4.9 0-8.5 2.3-10.6 5.1v-4.5H149v34.1z"></path>
    <path class="st1"
        d="M202.4 42.5c-5.9 0-10.6-4.9-10.6-10.8s4.6-10.8 10.6-10.8c5.9 0 10.6 4.9 10.6 10.8.1 5.9-4.6 10.8-10.6 10.8m0 6.8c9.6 0 17.5-8 17.5-17.6 0-9.6-7.8-17.5-17.5-17.5s-17.5 7.9-17.5 17.5c.1 9.6 7.8 17.6 17.5 17.6"></path>
    <path class="st0"
        d="M242 49.3c7.4 0 13.6-4.6 16.1-11.1l-6.8-1.8c-1.6 3.6-5 6.2-9.3 6.2-5.9 0-10.5-4.9-10.5-10.9 0-5.8 4.6-10.9 10.5-10.9 4.2 0 7.6 2.6 9.3 6.2l6.8-1.8c-2.6-6.6-8.7-11.1-16.1-11.1-9.6 0-17.5 7.7-17.5 17.5 0 9.6 7.6 17.7 17.5 17.7"></path>
</svg>